<svg version="1.1" viewBox="0.0 0.0 40.0 40.0" fill="none" stroke="none" stroke-linecap="square" stroke-miterlimit="10" xmlns:xlink="http://www.w3.org/1999/xlink" xmlns="http://www.w3.org/2000/svg"><clipPath id="p.0"><path d="m0 0l40.0 0l0 40.0l-40.0 0l0 -40.0z" clip-rule="nonzero"/></clipPath><g clip-path="url(#p.0)"><path fill="#0000ff" d="m0 0l40.0 0l0 40.0l-40.0 0z" fill-rule="evenodd"/><path fill="#000000" fill-opacity="0.0" d="m-7.2283463 0l54.456696 0l0 40.0l-54.456696 0z" fill-rule="evenodd"/><path fill="#ffffff" d="m5.1894526 28.539999l0 -17.1875l5.9062495 0q2.015625 0 3.0625 0.25q1.484375 0.34375 2.515626 1.234375q1.359375 1.140625 2.03125 2.9375q0.6875 1.78125 0.6875 4.078125q0 1.953125 -0.46875 3.46875q-0.453125 1.515625 -1.171875 2.515625q-0.703125 0.984375 -1.5625 1.546875q-0.84375095 0.5625 -2.046876 0.859375q-1.203125 0.296875 -2.765625 0.296875l-6.1874995 0zm2.265625 -2.03125l3.6718745 0q1.703125 0 2.65625 -0.3125q0.96875 -0.3125 1.546875 -0.890625q0.81250095 -0.8125 1.265626 -2.171875q0.453125 -1.375 0.453125 -3.3125q0 -2.703125 -0.890625 -4.140625q-0.89062595 -1.453125 -2.156251 -1.9375q-0.90625 -0.359375 -2.9375 -0.359375l-3.6093745 0l0 13.125zm14.285156 -3.484375l2.140625 -0.1875q0.15625 1.28125 0.703125 2.109375q0.5625019 0.828125 1.7343769 1.34375q1.171875 0.5 2.640625 0.5q1.296875 0 2.296875 -0.375q0.9999981 -0.390625 1.4843731 -1.0625q0.484375 -0.6875 0.484375 -1.484375q0 -0.796875 -0.46875 -1.40625q-0.46875 -0.609375 -1.5468731 -1.015625q-0.6875 -0.265625 -3.0625 -0.828125q-2.359375 -0.578125 -3.3125 -1.078125q-1.2343769 -0.640625 -1.8437519 -1.59375q-0.59375 -0.96875 -0.59375 -2.140625q0 -1.3125 0.734375 -2.4375q0.75 -1.125 2.156252 -1.703125q1.421875 -0.59375 3.15625 -0.59375q1.90625 0 3.359375 0.609375q1.4687481 0.609375 2.249998 1.8125q0.796875 1.1875 0.84375 2.703125l-2.171875 0.171875q-0.171875 -1.640625 -1.1874981 -2.46875q-1.015625 -0.828125 -3.0 -0.828125q-2.0625 0 -3.015625 0.765625q-0.9375019 0.75 -0.9375019 1.8125q0 0.921875 0.6718769 1.515625q0.65625 0.609375 3.421875 1.234375q2.78125 0.625 3.812498 1.09375q1.5 0.6875 2.203125 1.75q0.71875 1.0625 0.71875 2.4375q0 1.375 -0.78125 2.59375q-0.78125 1.203125 -2.25 1.890625q-1.4687481 0.671875 -3.312498 0.671875q-2.328125 0 -3.90625 -0.671875q-1.5781269 -0.6875 -2.484377 -2.046875q-0.890625 -1.375 -0.9375 -3.09375z" fill-rule="nonzero"/></g></svg>